HIERARCHY
ROOT hips
{
	OFFSET 0.000000 29.995300 -0.000000
	CHANNELS 6 Xposition Yposition Zposition Zrotation Yrotation Xrotation 
	JOINT Chest
	{
		OFFSET 0.000000 10.123600 0.695200
		CHANNELS 3 Zrotation Yrotation Xrotation
		JOINT Chest2
		{
			OFFSET 0.000000 15.405600 0.012300
			CHANNELS 3 Zrotation Yrotation Xrotation
			JOINT Chest3
			{
				OFFSET 0.000000 11.482400 -0.009100
				CHANNELS 3 Zrotation Yrotation Xrotation
				JOINT Neck
				{
					OFFSET 0.000000 25.678300 -0.023300
					CHANNELS 3 Zrotation Yrotation Xrotation
					JOINT Head
					{
						OFFSET 0.000000 13.458800 0.864200
						CHANNELS 3 Zrotation Yrotation Xrotation
						JOINT Head_End
						{
							OFFSET 0.000000 11.713200 -0.000000
							CHANNELS 3 Zrotation Yrotation Xrotation
							End Site
							{
								OFFSET 0.005000 0.000000 0.000000
							}
						}
					}
				}
				JOINT LeftCollar
				{
					OFFSET 12.227600 21.516500 -0.711700
					CHANNELS 3 Zrotation Yrotation Xrotation
					JOINT LeftShoulder
					{
						OFFSET 10.451400 0.021300 -0.002200
						CHANNELS 3 Zrotation Yrotation Xrotation
						JOINT LeftElbow
						{
							OFFSET 26.123400 0.000000 0.000000
							CHANNELS 3 Zrotation Yrotation Xrotation
							JOINT LeftWrist
							{
								OFFSET 25.245600 0.035600 0.002400
								CHANNELS 3 Zrotation Yrotation Xrotation
								JOINT Middle_00_L
								{
									OFFSET 11.653500 0.000000 0.000000
									CHANNELS 3 Zrotation Yrotation Xrotation
									JOINT Middle_01_L
									{
										OFFSET 4.384300 0.000000 0.000000
										CHANNELS 3 Zrotation Yrotation Xrotation
										JOINT Middle_02_L
										{
											OFFSET 3.470400 -0.000300 0.000000
											CHANNELS 3 Zrotation Yrotation Xrotation
											JOINT Middle_03_L
											{
												OFFSET 2.422200 0.000300 0.000000
												CHANNELS 3 Zrotation Yrotation Xrotation
												End Site
												{
													OFFSET 0.005000 0.000000 0.000000
												}
											}
										}
									}
								}
								JOINT Index_00_L
								{
									OFFSET 11.320700 0.000000 3.214800
									CHANNELS 3 Zrotation Yrotation Xrotation
									JOINT Index_01_L
									{
										OFFSET 3.752500 0.000000 0.000000
										CHANNELS 3 Zrotation Yrotation Xrotation
										JOINT Index_02_L
										{
											OFFSET 2.704900 0.000000 0.000300
											CHANNELS 3 Zrotation Yrotation Xrotation
											JOINT Index_03_L
											{
												OFFSET 2.288400 0.000000 -0.000300
												CHANNELS 3 Zrotation Yrotation Xrotation
												End Site
												{
													OFFSET 0.005000 0.000000 0.000000
												}
											}
										}
									}
								}
								JOINT Thumb_00_L
								{
									OFFSET 2.189000 0.000000 5.112700
									CHANNELS 3 Zrotation Yrotation Xrotation
									JOINT Thumb_01_L
									{
										OFFSET 5.672300 0.000000 0.000000
										CHANNELS 3 Zrotation Yrotation Xrotation
										JOINT Thumb_02_L
										{
											OFFSET 3.353600 0.000000 0.000400
											CHANNELS 3 Zrotation Yrotation Xrotation
											JOINT Thumb_03_L
											{
												OFFSET 3.066600 0.000000 -0.000400
												CHANNELS 3 Zrotation Yrotation Xrotation
												End Site
												{
													OFFSET 0.005000 0.000000 0.000000
												}
											}
										}
									}
								}
								JOINT Ring_00_L
								{
									OFFSET 11.421100 0.000000 -3.087400
									CHANNELS 3 Zrotation Yrotation Xrotation
									JOINT Ring_01_L
									{
										OFFSET 4.107700 0.000000 0.000000
										CHANNELS 3 Zrotation Yrotation Xrotation
										JOINT Ring_02_L
										{
											OFFSET 2.971800 0.000000 0.000500
											CHANNELS 3 Zrotation Yrotation Xrotation
											JOINT Ring_03_L
											{
												OFFSET 2.159200 0.000000 -0.000500
												CHANNELS 3 Zrotation Yrotation Xrotation
												End Site
												{
													OFFSET 0.005000 0.000000 0.000000
												}
											}
										}
									}
								}
								JOINT Little_00_L
								{
									OFFSET 10.838200 0.000000 -5.836000
									CHANNELS 3 Zrotation Yrotation Xrotation
									JOINT Little_01_L
									{
										OFFSET 3.568800 0.000000 0.000000
										CHANNELS 3 Zrotation Yrotation Xrotation
										JOINT Little_02_L
										{
											OFFSET 2.336100 0.000000 0.000200
											CHANNELS 3 Zrotation Yrotation Xrotation
											JOINT Little_03_L
											{
												OFFSET 1.912900 0.000000 -0.000200
												CHANNELS 3 Zrotation Yrotation Xrotation
												End Site
												{
													OFFSET 0.005000 0.000000 0.000000
												}
											}
										}
									}
								}
							}
						}
					}
				}
				JOINT RightCollar
				{
					OFFSET -12.227600 21.516500 -0.711700
					CHANNELS 3 Zrotation Yrotation Xrotation
					JOINT RightShoulder
					{
						OFFSET -10.451300 0.021300 -0.002200
						CHANNELS 3 Zrotation Yrotation Xrotation
						JOINT RightElbow
						{
							OFFSET -26.123400 0.000000 0.000000
							CHANNELS 3 Zrotation Yrotation Xrotation
							JOINT RightWrist
							{
								OFFSET -25.245800 0.035400 0.002000
								CHANNELS 3 Zrotation Yrotation Xrotation
								JOINT Middle_00_R
								{
									OFFSET -11.654000 0.000000 0.000000
									CHANNELS 3 Zrotation Yrotation Xrotation
									JOINT Middle_01_R
									{
										OFFSET -4.408600 0.000000 0.000000
										CHANNELS 3 Zrotation Yrotation Xrotation
										JOINT Middle_02_R
										{
											OFFSET -3.470400 0.000000 0.000000
											CHANNELS 3 Zrotation Yrotation Xrotation
											JOINT Middle_03_R
											{
												OFFSET -2.422200 0.000000 0.000000
												CHANNELS 3 Zrotation Yrotation Xrotation
												End Site
												{
													OFFSET 0.005000 0.000000 0.000000
												}
											}
										}
									}
								}
								JOINT Ring_00_R
								{
									OFFSET -11.459300 0.000000 -3.067300
									CHANNELS 3 Zrotation Yrotation Xrotation
									JOINT Ring_01_R
									{
										OFFSET -4.107700 0.000000 0.000000
										CHANNELS 3 Zrotation Yrotation Xrotation
										JOINT Ring_02_R
										{
											OFFSET -2.971800 0.000000 0.000000
											CHANNELS 3 Zrotation Yrotation Xrotation
											JOINT Ring_03_R
											{
												OFFSET -2.159200 0.000000 0.000000
												CHANNELS 3 Zrotation Yrotation Xrotation
												End Site
												{
													OFFSET 0.005000 0.000000 0.000000
												}
											}
										}
									}
								}
								JOINT Little_00_R
								{
									OFFSET -10.887000 0.000000 -5.818300
									CHANNELS 3 Zrotation Yrotation Xrotation
									JOINT Little_01_R
									{
										OFFSET -3.568800 0.000000 0.000000
										CHANNELS 3 Zrotation Yrotation Xrotation
										JOINT Little_02_R
										{
											OFFSET -2.336100 0.000000 0.000000
											CHANNELS 3 Zrotation Yrotation Xrotation
											JOINT Little_03_R
											{
												OFFSET -1.912900 0.000000 0.000000
												CHANNELS 3 Zrotation Yrotation Xrotation
												End Site
												{
													OFFSET 0.005000 0.000000 0.000000
												}
											}
										}
									}
								}
								JOINT Index_00_R
								{
									OFFSET -11.333200 0.000000 3.234400
									CHANNELS 3 Zrotation Yrotation Xrotation
									JOINT Index_01_R
									{
										OFFSET -3.752500 0.000000 0.000000
										CHANNELS 3 Zrotation Yrotation Xrotation
										JOINT Index_02_R
										{
											OFFSET -2.704900 0.000000 0.000000
											CHANNELS 3 Zrotation Yrotation Xrotation
											JOINT Index_03_R
											{
												OFFSET -2.288400 0.000000 0.000000
												CHANNELS 3 Zrotation Yrotation Xrotation
												End Site
												{
													OFFSET 0.005000 0.000000 0.000000
												}
											}
										}
									}
								}
								JOINT Thumb_00_R
								{
									OFFSET -2.193600 -0.231700 5.095700
									CHANNELS 3 Zrotation Yrotation Xrotation
									JOINT Thumb_01_R
									{
										OFFSET -5.672200 0.231700 0.000000
										CHANNELS 3 Zrotation Yrotation Xrotation
										JOINT Thumb_02_R
										{
											OFFSET -3.353600 0.000000 0.000000
											CHANNELS 3 Zrotation Yrotation Xrotation
											JOINT Thumb_03_R
											{
												OFFSET -3.066500 0.000000 0.000000
												CHANNELS 3 Zrotation Yrotation Xrotation
												End Site
												{
													OFFSET 0.005000 0.000000 0.000000
												}
											}
										}
									}
								}
							}
						}
					}
				}
			}
		}
	}
	JOINT LeftHip
	{
		OFFSET 6.356900 0.000000 0.000000
		CHANNELS 3 Zrotation Yrotation Xrotation
		JOINT LeftKnee
		{
			OFFSET -0.000100 -37.930500 0.000000
			CHANNELS 3 Zrotation Yrotation Xrotation
			JOINT LeftAnkle
			{
				OFFSET -0.000100 -42.440200 -0.085400
				CHANNELS 3 Zrotation Yrotation Xrotation
				JOINT LeftToe
				{
					OFFSET 0.135400 -9.338000 13.882500
					CHANNELS 3 Zrotation Yrotation Xrotation
					End Site
					{
						OFFSET 0.005000 0.000000 0.000000
					}
				}
			}
		}
	}
	JOINT RightHip
	{
		OFFSET -6.356900 0.000000 0.000000
		CHANNELS 3 Zrotation Yrotation Xrotation
		JOINT RightKnee
		{
			OFFSET 0.000100 -37.930500 0.000000
			CHANNELS 3 Zrotation Yrotation Xrotation
			JOINT RightAnkle
			{
				OFFSET 0.000100 -42.440200 -0.085400
				CHANNELS 3 Zrotation Yrotation Xrotation
				JOINT RightToe
				{
					OFFSET -0.135400 -9.338000 13.882500
					CHANNELS 3 Zrotation Yrotation Xrotation
					End Site
					{
						OFFSET 0.005000 0.000000 0.000000
					}
				}
			}
		}
	}
}
MOTION
Frames: 4
Frame Time: 0.041667
0.000000 89.700000 0.000000 0.000000 0.000000 0.000000 -1.612212 14.614947 1.836883 0.014827 -1.658316 -3.557002 -2.039543 0.805912 2.036600 3.494390 -0.722038 -1.122259 -4.843421 -6.471516 2.358887 0.000000 0.000000 0.000000 -20.262929 -3.840558 -0.640334 -50.534503 -0.782680 13.788310 -9.522094 -21.685129 26.901198 -5.158360 16.772996 -13.135988 -41.596843 17.672787 -14.613611 -22.894587 0.000000 0.000000 -16.117438 0.000000 0.000000 0.022390 -0.001199 4.934506 -27.396763 13.972803 -15.000000 -19.203531 0.000000 0.000000 -27.043270 0.000000 0.000000 2.447046 -0.079831 2.056764 -29.723440 -5.380251 120.000000 -21.441859 0.000000 0.000000 15.000000 0.000000 0.000000 4.260386 -0.094452 1.375350 -36.723329 13.970218 -0.118467 -34.527172 0.000000 0.000000 -21.796197 0.000000 0.000000 -6.917769 0.291382 2.291170 -35.117766 -0.560932 14.529229 -25.557983 0.000000 0.000000 -27.765947 0.000000 0.000000 0.441624 -0.014543 2.538997 9.306658 13.730026 -12.713247 28.762291 41.113161 2.529872 -126.415604 65.849227 -101.343051 7.376412 -13.605882 -88.469305 19.443464 -6.492649 9.932131 15.762399 0.000000 0.000000 3.325415 0.000000 0.000000 -7.969741 -5.107087 -8.050663 64.807475 -10.351494 -6.523312 60.340056 0.000000 0.000000 29.958795 0.000000 0.000000 6.271931 -1.933901 -4.817211 68.826142 -3.453884 -10.168462 61.906361 0.000000 0.000000 32.083775 0.000000 0.000000 -1.013052 -2.505694 -6.799366 14.391151 -2.488350 10.454955 8.879383 0.000000 0.000000 7.515655 0.000000 0.000000 -3.109834 -2.403556 -3.139792 16.697389 40.867070 111.365854 22.483712 0.000000 0.000000 13.635176 0.000000 0.000000 -4.610124 -2.491975 -2.359596 0.000000 0.000000 0.000000 0.000000 0.000000 0.000000 0.000000 0.000000 0.000000 0.000000 0.000000 0.000000 0.000000 0.000000 0.000000 0.000000 0.000000 0.000000 0.000000 0.000000 0.000000 0.000000 0.000000 0.000000 
0.000000 89.700000 0.000000 0.000000 0.000000 0.000000 -1.613625 14.675724 1.838597 0.051353 -1.698117 -3.572784 -2.108771 0.775464 2.020407 3.618133 -1.000519 -1.192517 -4.898725 -6.732846 2.471467 0.000000 0.000000 0.000000 -20.158302 -3.859894 -0.528716 -50.778909 -0.753514 13.682557 -9.460943 -21.635391 27.148171 -5.302174 16.601225 -13.116999 -41.018088 17.756224 -14.571536 -23.087902 0.000000 0.000000 -16.119015 0.000000 0.000000 0.022390 -0.001199 4.934506 -26.816497 13.868733 -15.000000 -19.423331 0.000000 0.000000 -27.069866 0.000000 0.000000 2.447046 -0.079831 2.056764 -30.027329 -5.548262 120.000000 -21.660979 0.000000 0.000000 15.000000 0.000000 0.000000 4.260386 -0.094452 1.375350 -36.391905 13.906347 -0.026415 -34.496335 0.000000 0.000000 -21.633579 0.000000 0.000000 -6.917769 0.291382 2.291170 -35.330343 -0.584679 14.529794 -25.391421 0.000000 0.000000 -27.490521 0.000000 0.000000 0.441624 -0.014543 2.538997 8.926413 13.700014 -12.978324 27.094821 41.531073 0.834871 -125.384073 65.056074 -99.901855 7.152892 -9.023934 -88.611665 17.228840 -6.836712 12.767716 9.989549 0.000000 0.000000 2.458758 0.000000 0.000000 -7.969741 -5.107087 -8.050663 69.219324 -15.263012 -9.027392 57.534385 0.000000 0.000000 30.849791 0.000000 0.000000 6.271931 -1.933901 -4.817211 69.383822 -9.323516 -11.654162 61.676008 0.000000 0.000000 32.777269 0.000000 0.000000 -1.013052 -2.505694 -6.799366 14.596939 -3.753984 12.540521 8.038880 0.000000 0.000000 8.392698 0.000000 0.000000 -3.109834 -2.403556 -3.139792 13.305966 40.913265 111.308014 21.676296 0.000000 0.000000 11.550261 0.000000 0.000000 -4.610124 -2.491975 -2.359596 0.000000 0.000000 0.000000 0.000000 0.000000 0.000000 0.000000 0.000000 0.000000 0.000000 0.000000 0.000000 0.000000 0.000000 0.000000 0.000000 0.000000 0.000000 0.000000 0.000000 0.000000 0.000000 0.000000 0.000000 
0.000000 89.700000 0.000000 0.000000 0.000000 0.000000 -1.620985 14.755984 1.789867 0.084178 -1.702863 -3.568747 -2.151462 0.755034 2.025635 3.691401 -1.232741 -1.253022 -4.893619 -6.987587 2.534087 0.000000 0.000000 0.000000 -20.031055 -3.880336 -0.466989 -51.005717 -0.783650 13.613983 -9.484397 -21.596220 27.463407 -5.475563 16.396069 -13.151651 -42.098788 17.991478 -14.645060 -22.967627 0.000000 0.000000 -16.337775 0.000000 0.000000 0.022390 -0.001199 4.934506 -27.299269 13.969947 -15.000000 -19.499468 0.000000 0.000000 -27.390555 0.000000 0.000000 2.447046 -0.079831 2.056764 -30.278785 -5.654174 120.000000 -21.993429 0.000000 0.000000 15.000000 0.000000 0.000000 4.260386 -0.094452 1.375350 -37.437852 14.040653 -0.163417 -34.280135 0.000000 0.000000 -21.532676 0.000000 0.000000 -6.917769 0.291382 2.291170 -35.604679 -0.622623 14.629073 -25.166514 0.000000 0.000000 -27.303894 0.000000 0.000000 0.441624 -0.014543 2.538997 8.641153 13.678971 -13.135549 25.816240 41.680592 -0.350183 -126.377500 64.809641 -100.024719 7.875135 -5.184308 -88.894173 18.864317 -8.435917 14.186897 7.622348 0.000000 0.000000 3.874033 0.000000 0.000000 -7.969741 -5.107087 -8.050663 75.198774 -19.606067 -10.789719 53.579841 0.000000 0.000000 30.916309 0.000000 0.000000 6.271931 -1.933901 -4.817211 75.973049 -15.060580 -12.225896 59.923104 0.000000 0.000000 32.137717 0.000000 0.000000 -1.013052 -2.505694 -6.799366 16.869364 -5.531122 13.948145 7.992377 0.000000 0.000000 9.213505 0.000000 0.000000 -3.109834 -2.403556 -3.139792 10.166527 40.689160 110.929117 21.521973 0.000000 0.000000 8.990355 0.000000 0.000000 -4.610124 -2.491975 -2.359596 0.000000 0.000000 0.000000 0.000000 0.000000 0.000000 0.000000 0.000000 0.000000 0.000000 0.000000 0.000000 0.000000 0.000000 0.000000 0.000000 0.000000 0.000000 0.000000 0.000000 0.000000 0.000000 0.000000 0.000000 
0.000000 89.700000 0.000000 0.000000 0.000000 0.000000 -1.637075 14.868483 1.739935 0.108671 -1.676791 -3.569393 -2.172745 0.751703 2.047619 3.728402 -1.412818 -1.333919 -4.863163 -7.260568 2.552633 0.000000 0.000000 0.000000 -19.878664 -3.908789 -0.458531 -51.210148 -0.867422 13.572018 -9.583309 -21.570613 27.875602 -5.709945 16.179400 -13.245040 -42.064808 18.261260 -14.780376 -22.647680 0.000000 0.000000 -16.633630 0.000000 0.000000 0.022390 -0.001199 4.934506 -27.194094 14.198326 -15.000000 -19.406470 0.000000 0.000000 -27.865486 0.000000 0.000000 2.447046 -0.079831 2.056764 -30.463328 -5.678487 120.000000 -22.362112 0.000000 0.000000 15.000000 0.000000 0.000000 4.260386 -0.094452 1.375350 -37.358143 14.229533 -0.363072 -33.863029 0.000000 0.000000 -21.459709 0.000000 0.000000 -6.917769 0.291382 2.291170 -35.093813 -0.631686 14.773869 -24.774237 0.000000 0.000000 -27.111924 0.000000 0.000000 0.441624 -0.014543 2.538997 8.422681 13.676688 -13.236626 24.832032 41.690560 -1.198609 -127.075058 64.830620 -99.859867 8.780755 -2.401919 -89.225117 21.120943 -10.575652 14.566309 7.237851 0.000000 0.000000 6.001271 0.000000 0.000000 -7.969741 -5.107087 -8.050663 78.355189 -22.499439 -11.185836 49.167511 0.000000 0.000000 30.626909 0.000000 0.000000 6.271931 -1.933901 -4.817211 81.933227 -19.773359 -11.837576 57.025579 0.000000 0.000000 30.878077 0.000000 0.000000 -1.013052 -2.505694 -6.799366 17.616660 -7.457138 14.651971 8.353493 0.000000 0.000000 9.575998 0.000000 0.000000 -3.109834 -2.403556 -3.139792 7.619922 40.232640 109.777788 22.119319 0.000000 0.000000 7.702158 0.000000 0.000000 -4.610124 -2.491975 -2.359596 0.000000 0.000000 0.000000 0.000000 0.000000 0.000000 0.000000 0.000000 0.000000 0.000000 0.000000 0.000000 0.000000 0.000000 0.000000 0.000000 0.000000 0.000000 0.000000 0.000000 0.000000 0.000000 0.000000 0.000000 
